<svg width="163" height="38" fill="none" xmlns="http://www.w3.org/2000/svg"><path d="M0 14.6545C0.227986 13.9269 0.422846 13.1889 0.687855 12.4743C2.63061 7.25608 6.32028 3.64958 11.6351 1.53306C14.7158 0.306229 17.9067 0.109561 21.1832 0.399879C24.0214 0.651801 26.7591 1.28863 29.4346 2.21109C29.7717 2.32722 29.9071 2.46863 29.9051 2.83387C29.8857 5.48701 29.8944 8.14015 29.8944 10.7942V11.2419C29.4687 11.3121 29.075 11.4086 28.6795 11.4226C28.5499 11.4226 28.3716 11.2447 28.2829 11.108C27.2775 9.56458 26.3256 7.9875 25.2763 6.47222C24.3848 5.18358 23.3608 3.97267 21.9782 3.13356C19.2317 1.46469 16.3721 1.39726 13.5291 2.8526C11.185 4.04947 9.85114 6.08357 8.96843 8.42017C8.27649 10.2745 7.9209 12.2293 7.91716 14.1994C7.89183 17.6645 7.89572 21.1296 8.00582 24.5947C8.08669 27.0914 8.62353 29.5217 9.97585 31.7075C11.8338 34.7127 14.6963 35.8281 18.2252 35.7907C21.5515 35.756 23.9074 34.1387 25.7361 31.6822C26.9706 30.0255 28.0657 28.2723 29.191 26.5435C29.3858 26.2495 29.5388 26.1371 29.9003 26.1867C30.7947 26.3094 30.7976 26.2926 30.7976 27.1495C30.7976 29.709 30.7976 32.2684 30.7976 34.8289C30.7976 35.1182 30.7635 35.3046 30.4167 35.4151C26.5282 36.656 22.5502 37.3902 18.4454 37.3921C9.5686 37.3921 2.06454 31.6129 0.114967 23.2901C0.0848781 23.1872 0.0464385 23.0866 0 22.9895V14.6545Z" fill="white"/><path d="M163 36.7565C162.822 36.7649 162.644 36.7817 162.466 36.7817H140.818V35.1644H148.448L137.486 9.91144L132.944 18.473L131.359 17.6395C131.994 16.422 132.606 15.2402 133.224 14.063C135.461 9.80936 137.697 5.55511 139.932 1.30024C140.113 0.952793 140.327 0.846032 140.711 0.85446C141.751 0.875064 141.751 0.86008 142.136 1.74602C146.912 12.7088 151.686 23.6725 156.459 34.6371C156.636 35.0454 156.848 35.1803 157.303 35.1737C159.202 35.1475 161.103 35.1635 163.001 35.1644L163 36.7565Z" fill="white"/><path d="M66.7297 2.48022H61.335V0.89939C61.4822 0.887215 61.6215 0.863803 61.7618 0.863803C67.8998 0.874105 74.0379 0.848818 80.176 0.91531C83.1418 0.947152 86.0598 1.37607 88.8024 2.56076C91.9611 3.92713 93.7889 6.24968 94.2166 9.5668C94.4524 11.4042 94.4758 13.2342 94.0295 15.0538C93.293 18.0563 91.3814 20.096 88.4887 21.3284C86.4495 22.1975 84.2914 22.6508 82.0808 22.7791C79.7658 22.913 77.4431 22.9177 75.1243 22.9776C74.9148 22.9832 74.7053 22.9776 74.4549 22.9776V35.1363H82.4802V36.8221H81.9658C69.27 36.8221 56.5736 36.8252 43.8766 36.8314C43.4109 36.8314 43.2326 36.7181 43.2832 36.262C43.3203 35.9249 43.2901 35.5802 43.2901 35.1682H51.0357L40.0924 9.8056L35.5376 18.4945L33.9504 17.6667C34.0186 17.5112 34.0703 17.3707 34.1395 17.2377C35.7418 14.1785 37.3462 11.1208 38.9525 8.06463C40.145 5.79828 41.3502 3.53941 42.5311 1.26744C42.6938 0.955581 42.8818 0.850691 43.2384 0.855374C44.3559 0.872231 44.354 0.855375 44.7866 1.85276C49.5412 12.7912 54.2931 23.7303 59.0425 34.67C59.1925 35.0165 59.3718 35.1607 59.7859 35.1569C61.9293 35.1335 64.0728 35.1466 66.2163 35.1448C66.3751 35.1448 66.5339 35.1317 66.7278 35.1223L66.7297 2.48022ZM74.4413 21.452C76.9053 21.3659 79.3196 21.3163 81.7281 21.1711C82.3682 21.1336 83.0268 20.8761 83.6143 20.5979C85.4255 19.742 86.1894 18.163 86.4086 16.363C86.7788 13.3334 86.7145 10.2888 86.4086 7.25549C86.2995 6.15977 85.9458 5.1165 85.1995 4.2418C84.1833 3.05149 82.7637 2.63943 81.2662 2.57387C79.0624 2.48022 76.8527 2.50738 74.6459 2.48022C74.5752 2.48736 74.5053 2.50116 74.4374 2.52143L74.4413 21.452Z" fill="white"/><path d="M118.912 3.08613C118.832 3.05242 118.803 3.02994 118.775 3.02994C115.868 3.02994 112.962 2.98967 110.057 3.04867C108.716 3.07583 107.644 3.8035 106.696 4.66883C105.02 6.20096 103.798 8.06181 102.598 9.93576C102.063 10.7702 101.565 11.628 101.074 12.4878C100.944 12.7144 100.811 12.7968 100.544 12.7687C99.5547 12.6479 99.5537 12.6554 99.5537 11.6898C99.5537 8.42829 99.5537 5.16643 99.5537 1.90425V1.30957H127.915C127.936 1.96513 127.999 2.55419 127.612 3.16199C120.925 13.6509 114.252 24.1495 107.592 34.6578C107.509 34.7889 107.434 34.9247 107.32 35.1157C107.508 35.1307 107.643 35.1504 107.778 35.1504C110.896 35.1569 114.013 35.1944 117.131 35.1504C118.696 35.1297 120.249 34.9284 121.533 33.917C122.612 33.0647 123.457 32.0093 124.154 30.8621C125.158 29.2073 126.102 27.5187 127.045 25.8293C127.247 25.4668 127.412 25.2383 127.879 25.4116C128.099 25.4931 128.349 25.4977 128.599 25.539V36.7565H98.0533C98.0533 36.1337 97.9822 35.5652 98.367 34.9715C105.142 24.4969 111.904 14.0136 118.652 3.52161C118.736 3.38769 118.812 3.25283 118.912 3.08613Z" fill="white"/></svg>