<svg width="190" height="62" fill="none" xmlns="http://www.w3.org/2000/svg"><g clip-path="url(#clip0_2_242)"><path d="M40.4251 53.8992C41.1254 53.8978 41.8184 54.0392 42.4606 54.3144L42.8163 54.4653L43.4674 53.2199L43.0515 53.0474C42.2026 52.7216 41.2978 52.5605 40.3868 52.573C39.4894 52.5484 38.5989 52.7331 37.7878 53.1121C37.0508 53.4674 36.4376 54.0303 36.0259 54.7295C35.6042 55.4749 35.3943 56.3186 35.4185 57.1717C35.3831 57.7942 35.4786 58.4172 35.6989 59.0016C35.9192 59.5861 36.2597 60.1194 36.6989 60.5682C37.1653 60.988 37.7116 61.3123 38.3061 61.5224C38.9007 61.7324 39.5317 61.8241 40.1625 61.7921C41.0047 61.8127 41.8454 61.7109 42.6576 61.4901L42.9476 61.4039V60.0722L42.4278 60.207C41.7395 60.3795 41.0313 60.4629 40.3212 60.455C39.8689 60.4859 39.415 60.4269 38.9864 60.2815C38.5577 60.1361 38.1631 59.9073 37.8261 59.6086C37.5223 59.2835 37.2893 58.9005 37.1416 58.4832C36.9938 58.0659 36.9344 57.6233 36.967 57.1825C36.9404 56.7423 37.0075 56.3015 37.1639 55.8884C37.3203 55.4753 37.5626 55.0989 37.8753 54.7834C38.5731 54.168 39.4899 53.85 40.4251 53.8992V53.8992Z" fill="white"/><path d="M49.4152 56.7888L46.8599 52.6914H45.1144L48.6546 58.266V61.6679H50.1648V58.2229L53.6886 52.6914H51.9923L49.4152 56.7888Z" fill="white"/><path d="M62.2955 56.9232C62.436 56.8434 62.5664 56.7475 62.6839 56.6374C62.8896 56.4494 63.0526 56.2205 63.162 55.9659C63.2714 55.7112 63.3248 55.4367 63.3187 55.1602C63.3355 54.7835 63.2495 54.4091 63.0695 54.0763C62.8895 53.7435 62.6222 53.4643 62.2955 53.2679C61.4256 52.8247 60.449 52.6251 59.472 52.691H56.4188V61.6675H59.7675C60.7292 61.7216 61.6844 61.4825 62.5034 60.9828C62.8422 60.7538 63.1164 60.4436 63.3002 60.0815C63.484 59.7193 63.5713 59.3171 63.5539 58.9126C63.5691 58.6103 63.5161 58.3085 63.3988 58.0289C63.2815 57.7492 63.1028 57.4987 62.8755 57.2952C62.7008 57.1449 62.5056 57.0197 62.2955 56.9232V56.9232ZM61.7811 55.1494C61.7974 55.3166 61.7666 55.485 61.6923 55.6362C61.618 55.7874 61.503 55.9155 61.3598 56.0067C60.8197 56.266 60.2183 56.376 59.6198 56.3247H57.9235V54.0065H59.4447C60.0815 53.9686 60.7185 54.0775 61.3051 54.3246C61.459 54.3995 61.5866 54.5181 61.6714 54.6651C61.7563 54.8121 61.7945 54.9808 61.7811 55.1494V55.1494ZM57.9235 57.6402H59.6198C62.0109 57.6402 62.0109 58.5999 62.0109 58.9126C62.0109 59.3061 62.0109 60.352 59.7675 60.352H57.9235V57.6402Z" fill="white"/><path d="M67.3898 61.6679H73.447V60.3308H68.8835V57.6406H73.1898V56.3036H68.8835V54.0284H73.447V52.6914H67.3898V61.6679Z" fill="white"/><path d="M83.3124 56.9991C83.7209 56.5431 83.9397 55.952 83.9252 55.344C83.9464 54.9474 83.8621 54.5523 83.6808 54.1977C83.4994 53.8431 83.2272 53.5413 82.8911 53.3222C82.0197 52.8422 81.0252 52.623 80.0294 52.6915H77.3373V61.6679H78.8529V58.1097H80.6039L83.0716 61.6679H84.8718L82.136 57.7646C82.587 57.6105 82.9915 57.3473 83.3124 56.9991V56.9991ZM78.8256 54.0177H80.002C80.6579 53.9601 81.3172 54.0833 81.9062 54.3735C82.0718 54.4847 82.2032 54.6384 82.2862 54.8181C82.3691 54.9978 82.4005 55.1965 82.3767 55.3925C82.3933 55.5908 82.3564 55.7899 82.27 55.9697C82.1835 56.1496 82.0505 56.3038 81.8843 56.4168C81.3894 56.7065 80.8172 56.8419 80.2428 56.805H78.8529L78.8256 54.0177Z" fill="white"/><path d="M92.6691 57.1717C92.1036 56.8757 91.5074 56.6407 90.8908 56.4708C90.3991 56.329 89.9197 56.1487 89.4572 55.9317C89.2683 55.8408 89.1035 55.7079 88.9757 55.5435C88.8806 55.38 88.8368 55.1924 88.8498 55.0044C88.8447 54.8432 88.8837 54.6836 88.9626 54.5422C89.0415 54.4009 89.1575 54.2831 89.2985 54.2011C90.0262 53.7159 91.4872 53.7428 92.8934 54.2496L93.2436 54.3736L93.8455 53.1498L93.4242 52.9934C92.565 52.6858 91.6572 52.5307 90.743 52.5352C89.8949 52.5032 89.0576 52.7311 88.3464 53.1875C88.0338 53.3826 87.7765 53.6525 87.5985 53.9721C87.4205 54.2917 87.3277 54.6506 87.3287 55.0152C87.3186 55.3178 87.375 55.6189 87.494 55.8981C87.613 56.1772 87.7918 56.4278 88.0181 56.6326C88.667 57.1209 89.4126 57.4699 90.2068 57.6569C90.7054 57.788 91.1922 57.9593 91.6623 58.1691C91.8912 58.2674 92.0949 58.4147 92.2587 58.6004C92.3661 58.7595 92.418 58.9487 92.4064 59.1395C92.4079 59.3165 92.3615 59.4906 92.2721 59.6441C92.1827 59.7976 92.0534 59.9249 91.8976 60.0129C91.4012 60.2989 90.8301 60.4339 90.2561 60.4011C89.4083 60.4257 88.5626 60.3072 87.7555 60.0506L87.2083 59.8512V61.2906L87.4819 61.3877C88.3989 61.657 89.3547 61.7754 90.3108 61.7381C91.219 61.7796 92.1183 61.5464 92.888 61.0696C93.219 60.8608 93.49 60.5716 93.675 60.2298C93.8599 59.888 93.9525 59.5052 93.944 59.1179C93.9532 58.7038 93.8411 58.2957 93.6212 57.9426C93.3693 57.6159 93.0432 57.3518 92.6691 57.1717V57.1717Z" fill="white"/><path d="M97.7085 61.6679H103.766V60.3308H99.2023V57.6406H103.514V56.3036H99.2023V54.0284H103.766V52.6914H97.7085V61.6679Z" fill="white"/><path d="M112.154 53.8991C112.854 53.8973 113.547 54.0386 114.189 54.3143L114.545 54.4652L115.196 53.2198L114.78 53.0473C113.931 52.7215 113.026 52.5604 112.116 52.5729C111.218 52.5489 110.328 52.7336 109.516 53.112C108.778 53.4657 108.165 54.029 107.755 54.7294C107.341 55.4624 107.132 56.29 107.147 57.1285C107.113 57.7509 107.209 58.3735 107.429 58.9577C107.65 59.542 107.989 60.0755 108.428 60.525C108.894 60.944 109.441 61.2678 110.035 61.4779C110.63 61.6879 111.26 61.78 111.891 61.7488C112.733 61.7695 113.574 61.6677 114.386 61.4469L114.676 61.3607V60.029L114.156 60.1638C113.468 60.3363 112.76 60.4196 112.05 60.4118C111.599 60.4669 111.141 60.4204 110.711 60.2759C110.281 60.1314 109.89 59.8927 109.567 59.5776C109.244 59.2626 108.998 58.8795 108.847 58.4571C108.696 58.0347 108.644 57.5842 108.696 57.1393C108.669 56.6991 108.736 56.2583 108.893 55.8452C109.049 55.432 109.291 55.0556 109.604 54.7402C109.952 54.4416 110.356 54.2136 110.794 54.0693C111.231 53.925 111.694 53.8672 112.154 53.8991Z" fill="white"/><path d="M124.908 58.4331C124.926 58.7097 124.88 58.9867 124.774 59.2434C124.668 59.5001 124.504 59.7299 124.296 59.9157C123.763 60.3093 123.105 60.5007 122.441 60.4548C121.764 60.5065 121.092 60.315 120.547 59.9157C120.334 59.724 120.167 59.4873 120.059 59.2231C119.951 58.9589 119.904 58.6742 119.924 58.39V52.6914H118.424V58.3576C118.404 58.832 118.492 59.3048 118.681 59.7414C118.871 60.178 119.157 60.5673 119.519 60.8808C120.331 61.5142 121.351 61.8326 122.386 61.7757C123.439 61.8333 124.479 61.5199 125.319 60.8915C125.683 60.582 125.97 60.195 126.16 59.7597C126.35 59.3244 126.436 58.8523 126.413 58.3792V52.6914H124.925L124.908 58.4331Z" fill="white"/><path d="M136.705 56.9993C137.114 56.5433 137.333 55.9523 137.318 55.3442C137.339 54.9477 137.255 54.5526 137.074 54.198C136.892 53.8434 136.62 53.5416 136.284 53.3225C135.411 52.8417 134.415 52.6225 133.417 52.6917H130.73V61.6682H132.224V58.1099H133.97L136.437 61.6682H138.238L135.502 57.7649C135.963 57.6148 136.377 57.3513 136.705 56.9993V56.9993ZM132.224 54.0179H133.395C134.053 53.9616 134.713 54.0847 135.305 54.3738C135.467 54.488 135.595 54.6424 135.677 54.8214C135.758 55.0004 135.791 55.1975 135.77 55.3927C135.786 55.591 135.749 55.7902 135.663 55.97C135.577 56.1498 135.444 56.304 135.277 56.4171C134.782 56.7068 134.21 56.8421 133.636 56.8052H132.224V54.0179Z" fill="white"/><path d="M142.741 52.6914H141.247V61.6679H142.741V52.6914Z" fill="white"/><path d="M145.882 54.0392H148.995V61.6679H150.494V54.0392H153.602V52.6914H145.882V54.0392Z" fill="white"/><path d="M161.93 52.6914L159.358 56.7888L156.803 52.6914H155.058L158.592 58.266V61.6679H160.108V58.2229L163.632 52.6914H161.93Z" fill="white"/><path d="M101.987 13.5991C101.664 13.4615 101.317 13.3847 100.964 13.3727C100.63 13.3727 100.198 13.3403 99.6838 13.3403C99.06 13.3403 98.5894 13.3403 98.2064 13.3889C97.8441 13.4106 97.4877 13.4889 97.1504 13.6207C96.8639 13.7396 96.6106 13.9245 96.4117 14.1598C96.2322 14.3769 96.105 14.6313 96.0396 14.9038L88.4722 36.9326L80.768 14.7744C80.6739 14.5612 80.5565 14.3587 80.4178 14.1706C80.2202 13.9269 79.9593 13.7406 79.6627 13.6315C79.3129 13.4971 78.9434 13.4188 78.5684 13.3996C78.1744 13.3673 77.6601 13.3511 76.998 13.3511C76.4837 13.3511 76.0514 13.3619 75.7012 13.3835C75.3563 13.398 75.0154 13.4616 74.6889 13.5722C74.3815 13.6749 74.1152 13.8713 73.9284 14.1328C73.7571 14.3806 73.6673 14.6742 73.6712 14.9739C73.6712 15.0601 73.6712 15.168 73.6712 15.2866C73.7014 15.4683 73.7415 15.6483 73.7916 15.8257C73.8518 16.0252 73.9229 16.2624 74.0214 16.5428L83.958 43.9035C84.0783 44.2154 84.2703 44.4956 84.5191 44.722C84.7678 44.9484 85.0665 45.1148 85.3916 45.2082C85.7844 45.3211 86.1877 45.3951 86.5954 45.4292C87.0605 45.4724 87.6296 45.4993 88.2916 45.4993C88.9537 45.4993 89.4845 45.4993 89.966 45.4454C90.3828 45.4227 90.7958 45.354 91.1971 45.2405C91.5552 45.1458 91.8817 44.9599 92.1437 44.7014C92.3604 44.4654 92.5261 44.1884 92.6307 43.8873L102.606 16.505C102.649 16.3487 102.693 16.2031 102.726 16.0791C102.759 15.9551 102.792 15.8041 102.814 15.6801C102.838 15.5644 102.856 15.4474 102.868 15.3297C102.876 15.2112 102.876 15.0924 102.868 14.9739C102.872 14.6848 102.792 14.4006 102.638 14.1544C102.474 13.917 102.249 13.7257 101.987 13.5991V13.5991Z" fill="white"/><path d="M129.193 16.9152C128.036 15.5789 126.591 14.5143 124.963 13.799C123.014 12.9894 120.912 12.5979 118.797 12.6507C116.707 12.6229 114.635 13.0174 112.707 13.8098C110.911 14.5672 109.311 15.7112 108.023 17.1578C106.686 18.6993 105.682 20.4935 105.073 22.4305C104.372 24.657 104.03 26.9785 104.061 29.3098C104.021 31.6975 104.352 34.0774 105.041 36.3669C105.617 38.2834 106.626 40.047 107.99 41.5264C109.33 42.926 110.985 43.9953 112.821 44.6479C114.931 45.3721 117.154 45.7225 119.387 45.6831C120.736 45.6872 122.083 45.5826 123.415 45.3704C124.521 45.1914 125.617 44.9556 126.698 44.6641C127.511 44.452 128.307 44.178 129.078 43.8446C129.535 43.6755 129.96 43.4332 130.336 43.1276C130.494 42.9656 130.63 42.7844 130.741 42.5885C130.86 42.3885 130.941 42.1695 130.982 41.9415C131.025 41.7403 131.056 41.5369 131.075 41.3323C131.103 41.0691 131.116 40.8045 131.113 40.5398C131.118 40.1796 131.1 39.8194 131.059 39.4615C131.033 39.1805 130.967 38.9045 130.862 38.642C130.75 38.374 130.559 38.145 130.315 37.9843C129.767 37.6501 129.171 37.6824 128.071 38.1622C127.59 38.3725 126.949 38.6205 126.172 38.89C125.278 39.194 124.364 39.4372 123.437 39.6179C122.261 39.8436 121.066 39.952 119.869 39.9413C118.437 39.9798 117.01 39.7474 115.667 39.2567C114.625 38.8539 113.703 38.1994 112.986 37.3535C112.269 36.4677 111.761 35.4367 111.497 34.3344C111.222 33.207 111.068 32.0541 111.038 30.8948H129.543C129.937 30.9075 130.328 30.8364 130.691 30.6863C131.054 30.5362 131.38 30.3106 131.647 30.025C131.913 29.7394 132.114 29.4005 132.235 29.0314C132.357 28.6623 132.396 28.2718 132.35 27.8865V26.9807C132.36 25.1251 132.104 23.2774 131.589 21.4924C131.118 19.8208 130.302 18.2627 129.193 16.9152V16.9152ZM125.554 25.6652H111.103C111.193 24.8336 111.376 24.0144 111.65 23.223C111.967 22.2748 112.454 21.3908 113.09 20.6136C113.716 19.8733 114.493 19.2708 115.371 18.8453C116.364 18.3882 117.45 18.1631 118.545 18.1875C120.931 18.1875 122.665 18.8776 123.852 20.2955C124.93 21.5894 125.505 23.4063 125.554 25.6652Z" fill="white"/><path d="M161.186 16.7364C160.269 15.5373 159.074 14.5723 157.7 13.9221C156.065 13.1687 154.274 12.7996 152.469 12.8439C150.623 12.8629 148.809 13.3236 147.184 14.1863C145.765 14.9483 144.464 15.9069 143.321 17.0329V15.0381C143.324 14.7491 143.244 14.4651 143.091 14.2187C142.93 13.9917 142.716 13.8067 142.467 13.6795C142.155 13.5197 141.812 13.426 141.46 13.4046C141.042 13.3637 140.622 13.3457 140.202 13.3507C139.776 13.3446 139.351 13.3626 138.927 13.4046C138.584 13.4305 138.248 13.5182 137.937 13.6634C137.644 13.792 137.4 14.0067 137.236 14.278C137.109 14.5152 137.045 14.7805 137.05 15.0489V43.8222C137.045 44.108 137.125 44.389 137.28 44.6309C137.46 44.896 137.72 45.098 138.024 45.2077C138.351 45.332 138.693 45.4136 139.042 45.4503C139.503 45.4994 139.967 45.5228 140.432 45.5204C140.905 45.5231 141.378 45.4997 141.849 45.4503C142.197 45.4162 142.538 45.3326 142.861 45.2023C143.144 45.0898 143.39 44.9033 143.572 44.6632C143.749 44.4179 143.841 44.123 143.835 43.8222V23.9499C144.965 22.5261 146.283 21.257 147.753 20.176C148.791 19.3872 150.054 18.9401 151.364 18.8983C152.2 18.8807 153.03 19.0522 153.788 19.3997C154.453 19.7231 155.02 20.2141 155.43 20.823C155.911 21.5493 156.263 22.3517 156.469 23.1951C156.742 24.4345 156.865 25.7012 156.836 26.969V43.8168C156.83 44.1192 156.922 44.4156 157.099 44.6632C157.284 44.9009 157.529 45.0868 157.81 45.2023C158.135 45.3326 158.478 45.4161 158.828 45.4503C159.761 45.5438 160.701 45.5438 161.635 45.4503C161.98 45.4156 162.32 45.332 162.641 45.2023C162.924 45.0898 163.17 44.9033 163.353 44.6632C163.533 44.4173 163.627 44.1201 163.621 43.8168V26.2574C163.655 24.4346 163.471 22.6143 163.074 20.8338C162.734 19.3555 162.092 17.9612 161.186 16.7364V16.7364Z" fill="white"/><path d="M189.3 32.2422C188.861 31.2949 188.24 30.44 187.472 29.7245C186.711 29.0251 185.853 28.4368 184.922 27.9777C184.014 27.5249 183.078 27.1097 182.137 26.7377C181.196 26.3657 180.31 26.0207 179.401 25.6595C178.62 25.3685 177.867 25.0075 177.152 24.5812C176.592 24.2355 176.1 23.7915 175.702 23.2711C175.331 22.7883 175.138 22.1948 175.155 21.5891C175.152 21.1146 175.249 20.6446 175.44 20.2089C175.621 19.791 175.901 19.4215 176.255 19.1306C176.678 18.7937 177.169 18.5476 177.694 18.4082C178.407 18.2143 179.144 18.1217 179.883 18.1333C180.728 18.1209 181.57 18.228 182.383 18.4513C183.053 18.6476 183.71 18.8872 184.348 19.1684C184.811 19.3718 185.259 19.6079 185.688 19.8746C186.608 20.4569 187.182 20.4515 187.691 20.1011C187.931 19.9309 188.12 19.6999 188.238 19.4325C188.348 19.1612 188.42 18.8765 188.452 18.5861C188.488 18.2441 188.507 17.9003 188.506 17.5564C188.509 17.2355 188.489 16.9149 188.446 16.5967C188.413 16.3487 188.38 16.1385 188.342 15.9552C188.298 15.7315 188.216 15.5166 188.101 15.319C187.931 15.0605 187.712 14.8371 187.456 14.6613C187.111 14.411 186.745 14.191 186.361 14.0035C185.809 13.7328 185.234 13.5092 184.643 13.335C183.927 13.117 183.195 12.9494 182.455 12.8336C181.645 12.6983 180.825 12.6298 180.003 12.6288C178.34 12.5995 176.683 12.8511 175.106 13.3728C173.797 13.8088 172.587 14.4918 171.544 15.3837C170.593 16.1955 169.844 17.2119 169.355 18.3543C168.876 19.4659 168.63 20.6617 168.633 21.8694C168.602 23.0996 168.839 24.3221 169.328 25.4546C169.758 26.4268 170.371 27.3103 171.134 28.0586C171.883 28.7704 172.73 29.3748 173.651 29.8539C174.548 30.3235 175.47 30.7446 176.414 31.1154C177.338 31.482 178.23 31.8271 179.1 32.156C179.871 32.4488 180.612 32.8096 181.316 33.2342C181.893 33.5702 182.402 34.009 182.816 34.5281C183.158 34.998 183.332 35.5673 183.308 36.1455C183.325 36.7421 183.202 37.3346 182.947 37.8761C182.713 38.3414 182.363 38.7403 181.929 39.0352C181.416 39.3819 180.843 39.6339 180.238 39.7792C179.493 39.9649 178.726 40.0537 177.957 40.0434C176.943 40.06 175.932 39.9255 174.958 39.6444C174.168 39.4069 173.397 39.1076 172.655 38.7495C171.993 38.4206 171.434 38.1133 170.986 37.8384C169.941 37.186 169.29 37.1806 168.77 37.5149C168.508 37.6864 168.315 37.9416 168.223 38.2373C168.128 38.4993 168.062 38.7704 168.026 39.046C167.971 39.4192 167.946 39.7958 167.949 40.1728C167.932 40.7645 167.996 41.3558 168.141 41.9303C168.255 42.3988 168.506 42.824 168.863 43.1542C169.256 43.4835 169.69 43.7625 170.154 43.9844C170.8 44.3037 171.469 44.574 172.157 44.7931C174.006 45.3791 175.937 45.6774 177.88 45.6773C179.517 45.6904 181.147 45.4762 182.723 45.0411C184.127 44.654 185.442 44.0042 186.597 43.1272C187.69 42.2841 188.567 41.2002 189.157 39.9625C189.768 38.6339 190.073 37.1887 190.049 35.7304C190.061 34.5277 189.805 33.3371 189.3 32.2422Z" fill="white"/><path d="M48.7585 29.9568C48.7586 29.639 48.6921 29.3246 48.5631 29.0333C48.4341 28.742 48.2454 28.48 48.0089 28.264C47.44 27.7595 46.6944 27.4928 45.9296 27.52H22.0018C20.1961 27.52 19.2659 28.7438 19.2659 29.9514C19.2693 30.2808 19.3415 30.6059 19.478 30.9066C19.6145 31.2072 19.8124 31.477 20.0593 31.699C20.3062 31.921 20.5968 32.0906 20.9132 32.1971C21.2295 32.3037 21.5647 32.3449 21.8978 32.3182H46.0992C46.4323 32.3401 46.7664 32.2959 47.0819 32.1882C47.3973 32.0806 47.6876 31.9116 47.9355 31.6914C48.1835 31.4712 48.3841 31.2043 48.5255 30.9063C48.6668 30.6084 48.7461 30.2855 48.7585 29.9568V29.9568Z" fill="white"/><path d="M15.7203 39.9627C10.7575 39.9627 7.17348 35.3585 7.17348 29.013C7.17348 23.5354 9.86557 18.004 15.8735 18.004C21.2084 18.004 23.1728 22.5273 23.8568 25.0666H31.4023V14.0414C31.4049 13.8317 31.3566 13.6245 31.2614 13.4369C31.1662 13.2493 31.0269 13.0869 30.8551 12.9631C30.5767 12.7698 30.2595 12.6375 29.9249 12.575C29.4749 12.5001 29.0187 12.4676 28.5624 12.4779C28.1062 12.47 27.6503 12.5024 27.2 12.575C26.8393 12.6277 26.4983 12.7706 26.2096 12.9901C26.0646 13.1241 25.9509 13.2875 25.8763 13.469C25.8016 13.6505 25.7679 13.8458 25.7773 14.0414V15.7181C22.9905 13.5407 19.5166 12.396 15.9611 12.4833C6.55518 12.4833 -0.0163574 19.368 -0.0163574 29.2232C-0.0163574 38.8251 6.34178 45.5319 15.4522 45.5319C19.2412 45.5549 22.919 44.2713 25.8485 41.9035V43.9199C25.8354 44.1214 25.869 44.3231 25.9467 44.5099C26.0245 44.6967 26.1443 44.8637 26.2971 44.9981C26.5882 45.2217 26.9333 45.3666 27.2985 45.4186C27.7482 45.4963 28.2045 45.5306 28.6609 45.5211C29.1174 45.5326 29.5739 45.4982 30.0234 45.4186C30.3563 45.3561 30.6717 45.2237 30.9481 45.0305C31.1199 44.9067 31.2592 44.7443 31.3544 44.5567C31.4496 44.3692 31.4979 44.1619 31.4953 43.9522V34.8086H23.1017C21.5969 38.0164 18.8665 39.9627 15.7203 39.9627Z" fill="white"/><path d="M69.7426 13.1425C68.8524 10.5503 67.4018 8.17926 65.4911 6.19317C63.5368 4.23044 61.1601 2.72518 58.5365 1.78849C55.3071 0.701269 51.9076 0.186531 48.4959 0.268152H38.3623C37.6871 0.272663 37.0326 0.498368 36.5019 0.909713C36.1698 1.19498 35.9112 1.55395 35.7476 1.95702C35.584 2.36009 35.5199 2.79571 35.5608 3.22796V25.068H42.674V6.2956H48.1457C51.1442 6.2956 53.6174 6.70534 55.4997 7.50864C57.2949 8.25774 58.889 9.40756 60.1561 10.8674C61.4153 12.3715 62.3382 14.1204 62.8646 15.9999C63.4662 18.1195 63.7628 20.3118 63.7456 22.5126C63.7566 25.0977 63.388 27.6708 62.6512 30.152C62.1118 32.0904 61.1439 33.8873 59.8169 35.4139C58.538 36.8096 56.9264 37.8694 55.1276 38.4977C53.3767 39.1285 50.4329 39.522 47.4672 39.522H42.5427V34.8101H35.4294V42.6166C35.3886 43.0481 35.4527 43.4829 35.6163 43.8851C35.78 44.2873 36.0385 44.6453 36.3706 44.9295C36.8981 45.3435 37.5512 45.5713 38.2255 45.5765H47.7189C51.1405 45.6443 54.5504 45.1617 57.8142 44.1478C60.5355 43.2643 63.0129 41.7735 65.0533 39.7916C67.1005 37.7259 68.6392 35.2248 69.5511 32.481C70.6666 29.1918 71.2213 25.7432 71.1926 22.2753C71.2307 19.1726 70.7406 16.0856 69.7426 13.1425V13.1425Z" fill="white"/></g><defs><clipPath id="clip0_2_242"><rect width="190" height="61.5091" fill="white" transform="translate(0 0.266602)"/></clipPath></defs></svg>