<svg width="112" height="37" viewBox="0 0 112 37" fill="none" xmlns="http://www.w3.org/2000/svg">
<g clip-path="url(#clip0_2_6)">
<path d="M23.8295 31.7914C24.2423 31.7906 24.6508 31.8736 25.0294 32.0352L25.239 32.1239L25.6229 31.3925L25.3777 31.2911C24.8773 31.0998 24.3439 31.0052 23.807 31.0125C23.278 30.9981 22.753 31.1066 22.2749 31.3291C21.8405 31.5378 21.479 31.8684 21.2363 32.279C20.9877 32.7168 20.864 33.2123 20.8783 33.7134C20.8574 34.079 20.9137 34.4448 21.0436 34.7881C21.1734 35.1313 21.3741 35.4446 21.633 35.7081C21.9079 35.9547 22.23 36.1451 22.5804 36.2685C22.9309 36.3919 23.3029 36.4457 23.6747 36.4269C24.1712 36.439 24.6668 36.3793 25.1455 36.2496L25.3165 36.1989V35.4168L25.01 35.496C24.6043 35.5973 24.1869 35.6463 23.7682 35.6417C23.5017 35.6598 23.2341 35.6251 22.9814 35.5398C22.7287 35.4544 22.4961 35.32 22.2974 35.1445C22.1184 34.9536 21.981 34.7287 21.894 34.4836C21.8069 34.2385 21.7718 33.9786 21.7911 33.7197C21.7754 33.4612 21.8149 33.2023 21.9071 32.9597C21.9993 32.717 22.1422 32.496 22.3265 32.3107C22.7378 31.9493 23.2783 31.7625 23.8295 31.7914Z" fill="#237FBD"/>
<path d="M29.1289 33.4884L27.6227 31.082H26.5938L28.6806 34.356V36.3539H29.5708V34.3307L31.648 31.082H30.6481L29.1289 33.4884Z" fill="#237FBD"/>
<path d="M36.7215 33.5675C36.8043 33.5206 36.8812 33.4643 36.9505 33.3997C37.0718 33.2892 37.1678 33.1548 37.2323 33.0053C37.2968 32.8557 37.3283 32.6945 37.3247 32.5321C37.3346 32.3108 37.2839 32.091 37.1778 31.8955C37.0717 31.7 36.9141 31.5361 36.7215 31.4207C36.2088 31.1604 35.6331 31.0432 35.0572 31.0819H33.2574V36.3539H35.2313C35.7982 36.3856 36.3613 36.2452 36.8441 35.9517C37.0438 35.8172 37.2054 35.635 37.3138 35.4224C37.4221 35.2097 37.4736 34.9734 37.4634 34.7359C37.4723 34.5584 37.4411 34.3811 37.3719 34.2169C37.3027 34.0526 37.1974 33.9055 37.0634 33.786C36.9605 33.6977 36.8454 33.6242 36.7215 33.5675ZM36.4183 32.5258C36.4279 32.624 36.4098 32.7229 36.366 32.8117C36.3222 32.9004 36.2544 32.9757 36.17 33.0292C35.8516 33.1816 35.4971 33.2461 35.1443 33.216H34.1444V31.8545H35.0411C35.4164 31.8323 35.7919 31.8962 36.1377 32.0413C36.2284 32.0853 36.3036 32.155 36.3537 32.2413C36.4037 32.3277 36.4262 32.4267 36.4183 32.5258ZM34.1444 33.9886H35.1443C36.5538 33.9886 36.5538 34.5522 36.5538 34.7359C36.5538 34.967 36.5538 35.5813 35.2313 35.5813H34.1444V33.9886Z" fill="#237FBD"/>
<path d="M39.7245 36.3539H43.295V35.5687H40.605V33.9887H43.1434V33.2035H40.605V31.8673H43.295V31.082H39.7245V36.3539Z" fill="#237FBD"/>
<path d="M49.1104 33.6118C49.3512 33.344 49.4802 32.9968 49.4717 32.6397C49.4842 32.4068 49.4345 32.1748 49.3276 31.9665C49.2206 31.7583 49.0602 31.581 48.8621 31.4524C48.3484 31.1705 47.7622 31.0417 47.1752 31.0819H45.5883V36.3538H46.4817V34.264H47.5138L48.9685 36.3538H50.0297L48.417 34.0614C48.6828 33.9709 48.9213 33.8163 49.1104 33.6118ZM46.4656 31.8608H47.159C47.5457 31.827 47.9343 31.8993 48.2815 32.0698C48.3791 32.1351 48.4566 32.2254 48.5055 32.3309C48.5544 32.4364 48.5729 32.5531 48.5589 32.6682C48.5686 32.7847 48.5469 32.9016 48.4959 33.0073C48.445 33.1129 48.3666 33.2034 48.2686 33.2698C47.9769 33.44 47.6396 33.5195 47.301 33.4978H46.4817L46.4656 31.8608Z" fill="#237FBD"/>
<path d="M54.626 33.7135C54.2926 33.5397 53.9412 33.4017 53.5777 33.3019C53.2879 33.2186 53.0053 33.1127 52.7326 32.9853C52.6213 32.9319 52.5241 32.8539 52.4488 32.7573C52.3928 32.6613 52.367 32.5511 52.3746 32.4407C52.3716 32.346 52.3946 32.2523 52.4411 32.1693C52.4876 32.0863 52.556 32.0171 52.6391 31.9689C53.0681 31.6839 53.9293 31.6998 54.7582 31.9974L54.9646 32.0702L55.3194 31.3515L55.0711 31.2596C54.5646 31.079 54.0295 30.9879 53.4906 30.9905C52.9907 30.9717 52.4971 31.1056 52.0779 31.3736C51.8936 31.4882 51.7419 31.6467 51.637 31.8344C51.5321 32.0221 51.4774 32.2329 51.4779 32.447C51.472 32.6247 51.5053 32.8016 51.5754 32.9656C51.6456 33.1295 51.7509 33.2766 51.8843 33.3969C52.2669 33.6837 52.7064 33.8887 53.1745 33.9985C53.4684 34.0755 53.7554 34.1761 54.0325 34.2993C54.1674 34.357 54.2875 34.4436 54.3841 34.5526C54.4474 34.6461 54.478 34.7572 54.4711 34.8692C54.472 34.9732 54.4447 35.0755 54.392 35.1656C54.3392 35.2558 54.263 35.3305 54.1712 35.3822C53.8786 35.5502 53.5419 35.6295 53.2035 35.6102C52.7038 35.6246 52.2053 35.555 51.7295 35.4043L51.407 35.2872V36.1326L51.5683 36.1896C52.1088 36.3478 52.6722 36.4173 53.2358 36.3954C53.7712 36.4198 54.3013 36.2828 54.755 36.0028C54.9501 35.8801 55.1099 35.7103 55.2189 35.5096C55.3279 35.3089 55.3825 35.084 55.3775 34.8566C55.3829 34.6133 55.3169 34.3737 55.1872 34.1663C55.0387 33.9744 54.8465 33.8193 54.626 33.7135Z" fill="#237FBD"/>
<path d="M57.5966 36.3539H61.1672V35.5687H58.4772V33.9887H61.0188V33.2035H58.4772V31.8673H61.1672V31.082H57.5966V36.3539Z" fill="#237FBD"/>
<path d="M66.1117 31.7914C66.5245 31.7903 66.933 31.8733 67.3115 32.0352L67.5212 32.1238L67.905 31.3924L67.6599 31.2911C67.1594 31.0997 66.6261 31.0051 66.0891 31.0124C65.5601 30.9984 65.0352 31.1068 64.557 31.3291C64.1219 31.5368 63.7602 31.8676 63.5184 32.279C63.2747 32.7095 63.1512 33.1956 63.1604 33.688C63.1403 34.0535 63.1969 34.4192 63.3268 34.7623C63.4566 35.1054 63.6569 35.4187 63.9151 35.6828C64.1903 35.9288 64.5124 36.119 64.8628 36.2424C65.2132 36.3657 65.585 36.4198 65.9568 36.4015C66.4533 36.4136 66.9489 36.3539 67.4276 36.2242L67.5986 36.1735V35.3915L67.2922 35.4706C66.8864 35.5719 66.469 35.6209 66.0504 35.6163C65.7845 35.6486 65.5147 35.6213 65.2611 35.5365C65.0076 35.4516 64.7769 35.3114 64.5866 35.1264C64.3963 34.9413 64.2512 34.7163 64.1622 34.4683C64.0733 34.2202 64.0428 33.9556 64.0732 33.6943C64.0575 33.4358 64.097 33.1769 64.1892 32.9343C64.2814 32.6916 64.4243 32.4706 64.6086 32.2853C64.8137 32.11 65.0521 31.9761 65.31 31.8913C65.5679 31.8066 65.8403 31.7726 66.1117 31.7914Z" fill="#237FBD"/>
<path d="M73.6303 34.4542C73.6406 34.6166 73.6135 34.7793 73.5509 34.93C73.4884 35.0808 73.392 35.2157 73.269 35.3249C72.9552 35.556 72.567 35.6684 72.1756 35.6415C71.7769 35.6718 71.3804 35.5594 71.0596 35.3249C70.9336 35.2123 70.8351 35.0733 70.7714 34.9181C70.7077 34.763 70.6806 34.5957 70.6919 34.4288V31.082H69.8081V34.4098C69.7962 34.6884 69.8479 34.9661 69.9596 35.2225C70.0712 35.4789 70.2399 35.7076 70.4532 35.8917C70.9323 36.2637 71.5335 36.4507 72.1434 36.4173C72.7642 36.4511 73.377 36.267 73.8722 35.898C74.0867 35.7162 74.2563 35.4889 74.368 35.2333C74.4798 34.9776 74.5308 34.7004 74.5173 34.4225V31.082H73.64L73.6303 34.4542Z" fill="#237FBD"/>
<path d="M80.5843 33.6119C80.8251 33.3441 80.9541 32.997 80.9455 32.6399C80.958 32.407 80.9084 32.1749 80.8014 31.9667C80.6945 31.7584 80.5341 31.5812 80.3359 31.4525C79.8213 31.1702 79.2339 31.0414 78.6458 31.082H77.0621V36.354H77.9427V34.2642H78.9716L80.4263 36.354H81.4874L79.8747 34.0615C80.1464 33.9734 80.3906 33.8187 80.5843 33.6119ZM77.9427 31.861H78.6329C79.0206 31.8278 79.41 31.9001 79.7586 32.0699C79.8541 32.137 79.9298 32.2277 79.9779 32.3328C80.0261 32.438 80.045 32.5537 80.0327 32.6684C80.0425 32.7848 80.0208 32.9018 79.9698 33.0074C79.9189 33.113 79.8404 33.2036 79.7425 33.27C79.4508 33.4401 79.1134 33.5196 78.7748 33.4979H77.9427V31.861Z" fill="#237FBD"/>
<path d="M84.1418 31.082H83.2613V36.3539H84.1418V31.082Z" fill="#237FBD"/>
<path d="M85.9933 31.8736H87.8286V36.3539H88.7123V31.8736H90.5444V31.082H85.9933V31.8736Z" fill="#237FBD"/>
<path d="M95.4535 31.082L93.9375 33.4884L92.4313 31.082H91.4023L93.486 34.356V36.3539H94.3794V34.3307L96.4566 31.082H95.4535Z" fill="#237FBD"/>
<path d="M60.1189 8.12317C59.9281 8.04233 59.7235 7.99723 59.5158 7.99019C59.319 7.99019 59.0642 7.97119 58.761 7.97119C58.3933 7.97119 58.1159 7.97119 57.8902 7.99969C57.6766 8.01246 57.4665 8.05842 57.2677 8.13584C57.0988 8.20566 56.9495 8.31425 56.8322 8.45247C56.7265 8.58 56.6515 8.72938 56.6129 8.88942L52.1521 21.827L47.6107 8.81343C47.5552 8.68822 47.486 8.56931 47.4043 8.4588C47.2878 8.3157 47.134 8.20628 46.9592 8.14217C46.7529 8.06323 46.5351 8.01727 46.3141 8.00602C46.0818 7.98702 45.7787 7.97752 45.3884 7.97752C45.0852 7.97752 44.8304 7.98386 44.624 7.99652C44.4207 8.00506 44.2197 8.04239 44.0272 8.10734C43.846 8.16771 43.689 8.28302 43.5789 8.43664C43.478 8.58212 43.425 8.75457 43.4273 8.93058C43.4273 8.98124 43.4273 9.04457 43.4273 9.11423C43.4451 9.22096 43.4688 9.32666 43.4983 9.43086C43.5338 9.54802 43.5757 9.68733 43.6337 9.85198L49.4911 25.921C49.562 26.1042 49.6752 26.2688 49.8219 26.4017C49.9685 26.5347 50.1446 26.6324 50.3362 26.6873C50.5678 26.7536 50.8055 26.7971 51.0458 26.8171C51.32 26.8424 51.6554 26.8582 52.0457 26.8582C52.436 26.8582 52.7488 26.8582 53.0327 26.8266C53.2784 26.8132 53.5218 26.7729 53.7584 26.7063C53.9695 26.6506 54.1619 26.5414 54.3164 26.3896C54.4441 26.251 54.5418 26.0884 54.6034 25.9115L60.4834 9.82982C60.5092 9.73799 60.535 9.6525 60.5544 9.57968C60.5737 9.50685 60.5931 9.4182 60.606 9.34537C60.6205 9.27739 60.6313 9.20868 60.6382 9.13956C60.6427 9.06997 60.6427 9.00017 60.6382 8.93058C60.6404 8.7608 60.5935 8.59389 60.5028 8.4493C60.4056 8.30989 60.2734 8.19754 60.1189 8.12317Z" fill="#237FBD"/>
<path d="M76.1558 10.0708C75.474 9.28601 74.6221 8.66072 73.6625 8.24067C72.5133 7.76515 71.2742 7.53525 70.0275 7.56624C68.796 7.54988 67.5742 7.78158 66.4376 8.247C65.3792 8.69181 64.4358 9.36369 63.6766 10.2133C62.8884 11.1186 62.2968 12.1723 61.9381 13.3099C61.5244 14.6176 61.3231 15.981 61.3414 17.3501C61.3178 18.7525 61.5125 20.1502 61.9187 21.4948C62.2587 22.6204 62.853 23.6562 63.6572 24.525C64.4469 25.347 65.4226 25.975 66.5053 26.3583C67.7488 26.7836 69.0592 26.9894 70.3758 26.9662C71.1709 26.9687 71.9649 26.9073 72.7497 26.7826C73.4017 26.6775 74.0477 26.539 74.685 26.3678C75.1647 26.2432 75.6338 26.0823 76.0881 25.8865C76.3573 25.7872 76.6079 25.6449 76.8299 25.4654C76.9229 25.3703 77.0031 25.2639 77.0686 25.1488C77.1384 25.0314 77.1865 24.9027 77.2105 24.7688C77.2357 24.6507 77.254 24.5312 77.2654 24.411C77.282 24.2564 77.2896 24.101 77.2879 23.9456C77.2909 23.734 77.2801 23.5225 77.2557 23.3123C77.2406 23.1473 77.2015 22.9852 77.1396 22.831C77.0736 22.6736 76.9613 22.5391 76.817 22.4447C76.4945 22.2484 76.1429 22.2674 75.4946 22.5492C75.2108 22.6727 74.8334 22.8184 74.3754 22.9767C73.8484 23.1552 73.3096 23.298 72.7626 23.4041C72.0699 23.5367 71.3654 23.6004 70.6597 23.5941C69.8154 23.6167 68.9745 23.4802 68.1825 23.192C67.5685 22.9554 67.025 22.5711 66.6021 22.0743C66.1799 21.554 65.8803 20.9485 65.7247 20.3011C65.5624 19.639 65.4716 18.9619 65.4538 18.281H76.3622C76.5942 18.2885 76.8251 18.2467 77.0391 18.1586C77.2532 18.0704 77.4453 17.938 77.6024 17.7702C77.7595 17.6025 77.8778 17.4034 77.9494 17.1867C78.0209 16.9699 78.0439 16.7405 78.0169 16.5142V15.9823C78.0228 14.8925 77.8718 13.8073 77.5685 12.759C77.2905 11.7773 76.8096 10.8622 76.1558 10.0708ZM74.0109 15.2097H65.4925C65.5451 14.7213 65.6533 14.2402 65.8151 13.7754C66.0014 13.2185 66.2888 12.6993 66.6633 12.2429C67.0327 11.8081 67.4909 11.4543 68.0084 11.2043C68.5933 10.9359 69.2335 10.8037 69.8791 10.818C71.2854 10.818 72.3079 11.2233 73.0078 12.0561C73.6432 12.816 73.9819 13.883 74.0109 15.2097Z" fill="#237FBD"/>
<path d="M95.0149 9.9659C94.4744 9.26167 93.7699 8.6949 92.9603 8.31309C91.9962 7.87061 90.9407 7.65384 89.8768 7.67982C88.7885 7.69101 87.7192 7.96157 86.761 8.46824C85.9244 8.91573 85.1575 9.47873 84.4838 10.14V8.96851C84.4857 8.79877 84.4387 8.63196 84.3484 8.48723C84.2538 8.35396 84.1276 8.24528 83.9807 8.1706C83.7965 8.07671 83.5943 8.0217 83.3872 8.00912C83.1407 7.98509 82.893 7.97452 82.6453 7.97746C82.3944 7.97392 82.1435 7.98449 81.8938 8.00912C81.6914 8.02433 81.4935 8.07585 81.31 8.1611C81.1377 8.23663 80.9935 8.36274 80.8972 8.52206C80.822 8.66139 80.7843 8.81722 80.7875 8.97485V25.8735C80.7847 26.0413 80.8318 26.2064 80.923 26.3484C81.0289 26.5041 81.1825 26.6228 81.3616 26.6872C81.5544 26.7602 81.7561 26.8081 81.9615 26.8297C82.2336 26.8585 82.5072 26.8722 82.7808 26.8708C83.0598 26.8724 83.3387 26.8587 83.6162 26.8297C83.8212 26.8096 84.0222 26.7605 84.2129 26.684C84.3794 26.6179 84.5244 26.5084 84.6322 26.3674C84.7365 26.2233 84.7908 26.0501 84.787 25.8735V14.2024C85.4532 13.3662 86.2298 12.6209 87.0964 11.986C87.7082 11.5227 88.453 11.2602 89.2252 11.2356C89.7182 11.2252 90.207 11.326 90.6541 11.5301C91.0461 11.72 91.38 12.0084 91.6217 12.366C91.9057 12.7925 92.1129 13.2638 92.2346 13.7591C92.3953 14.487 92.4679 15.231 92.4507 15.9756V25.8703C92.4474 26.0479 92.5016 26.222 92.6055 26.3674C92.7147 26.507 92.8593 26.6162 93.0248 26.684C93.2166 26.7605 93.4187 26.8096 93.6247 26.8297C94.1748 26.8846 94.7292 26.8846 95.2794 26.8297C95.4833 26.8093 95.6831 26.7602 95.8728 26.684C96.0394 26.6179 96.1843 26.5084 96.2921 26.3674C96.3984 26.223 96.4539 26.0484 96.4502 25.8703V15.5576C96.4701 14.4871 96.3618 13.418 96.1277 12.3723C95.9276 11.5041 95.5489 10.6852 95.0149 9.9659Z" fill="#237FBD"/>
<path d="M111.587 19.0721C111.328 18.5158 110.963 18.0137 110.51 17.5935C110.061 17.1827 109.555 16.8372 109.007 16.5676C108.471 16.3016 107.92 16.0578 107.365 15.8393C106.81 15.6209 106.288 15.4182 105.752 15.2061C105.292 15.0352 104.848 14.8232 104.427 14.5728C104.096 14.3698 103.807 14.109 103.572 13.8034C103.353 13.5198 103.239 13.1713 103.249 12.8155C103.248 12.5368 103.305 12.2609 103.417 12.0049C103.524 11.7595 103.689 11.5425 103.898 11.3717C104.147 11.1738 104.436 11.0293 104.746 10.9474C105.166 10.8335 105.601 10.7791 106.036 10.7859C106.534 10.7787 107.031 10.8416 107.51 10.9727C107.905 11.088 108.292 11.2287 108.668 11.3938C108.941 11.5133 109.205 11.652 109.458 11.8086C110 12.1506 110.339 12.1474 110.639 11.9416C110.78 11.8417 110.892 11.706 110.961 11.549C111.026 11.3896 111.068 11.2224 111.087 11.0519C111.109 10.851 111.12 10.6491 111.119 10.4471C111.121 10.2587 111.109 10.0703 111.084 9.88351C111.065 9.73786 111.045 9.61437 111.023 9.50672C110.997 9.37537 110.949 9.24914 110.881 9.13309C110.781 8.9813 110.651 8.8501 110.5 8.7468C110.297 8.59984 110.081 8.47058 109.855 8.36051C109.53 8.20152 109.191 8.07016 108.842 7.96789C108.42 7.83984 107.989 7.74143 107.552 7.67342C107.075 7.59395 106.591 7.5537 106.107 7.5531C105.127 7.5359 104.15 7.68368 103.22 7.99005C102.449 8.24615 101.736 8.6473 101.121 9.17109C100.56 9.64786 100.119 10.2448 99.8305 10.9157C99.548 11.5686 99.4032 12.2709 99.4047 12.9802C99.3867 13.7027 99.5264 14.4206 99.8143 15.0858C100.068 15.6567 100.429 16.1756 100.879 16.6151C101.32 17.0331 101.82 17.3881 102.362 17.6695C102.891 17.9452 103.435 18.1926 103.991 18.4104C104.536 18.6257 105.062 18.8283 105.575 19.0215C106.029 19.1934 106.466 19.4054 106.881 19.6547C107.221 19.8521 107.521 20.1098 107.765 20.4147C107.967 20.6906 108.069 21.025 108.055 21.3645C108.065 21.715 107.993 22.0629 107.842 22.3809C107.705 22.6542 107.498 22.8885 107.243 23.0617C106.94 23.2653 106.602 23.4133 106.246 23.4986C105.806 23.6077 105.354 23.6599 104.901 23.6538C104.303 23.6635 103.707 23.5845 103.133 23.4195C102.667 23.28 102.213 23.1042 101.775 22.8939C101.385 22.7007 101.056 22.5203 100.792 22.3588C100.176 21.9756 99.7918 21.9725 99.4853 22.1688C99.3312 22.2695 99.2173 22.4194 99.1628 22.5931C99.1072 22.7469 99.0683 22.9061 99.0467 23.068C99.0147 23.2872 98.9996 23.5084 99.0015 23.7298C98.9912 24.0773 99.0292 24.4246 99.1144 24.762C99.1822 25.0371 99.3301 25.2869 99.5402 25.4808C99.7719 25.6742 100.028 25.838 100.301 25.9684C100.682 26.1559 101.077 26.3147 101.482 26.4433C102.572 26.7875 103.71 26.9627 104.856 26.9626C105.82 26.9703 106.781 26.8445 107.71 26.589C108.538 26.3616 109.313 25.98 109.994 25.4649C110.638 24.9698 111.155 24.3332 111.503 23.6063C111.863 22.826 112.043 21.9772 112.029 21.1207C112.036 20.4144 111.885 19.7152 111.587 19.0721Z" fill="#237FBD"/>
<path d="M28.7418 17.7301C28.7418 17.5435 28.7026 17.3588 28.6266 17.1877C28.5506 17.0166 28.4393 16.8628 28.2999 16.7359C27.9646 16.4397 27.5251 16.283 27.0742 16.299H12.9694C11.905 16.299 11.3567 17.0177 11.3567 17.727C11.3587 17.9204 11.4013 18.1113 11.4817 18.2879C11.5622 18.4645 11.6788 18.6229 11.8244 18.7533C11.9699 18.8837 12.1412 18.9833 12.3277 19.0459C12.5141 19.1084 12.7117 19.1326 12.9081 19.117H27.1742C27.3706 19.1298 27.5675 19.1039 27.7535 19.0406C27.9394 18.9774 28.1105 18.8782 28.2567 18.7489C28.4028 18.6196 28.5211 18.4628 28.6044 18.2878C28.6877 18.1128 28.7345 17.9232 28.7418 17.7301Z" fill="#237FBD"/>
<path d="M9.26659 23.6068C6.34112 23.6068 4.22846 20.9028 4.22846 17.176C4.22846 13.9591 5.81537 10.7104 9.3569 10.7104C12.5017 10.7104 13.6596 13.367 14.0628 14.8583H18.5107V8.38319C18.5122 8.26004 18.4838 8.13831 18.4277 8.02815C18.3716 7.918 18.2894 7.8226 18.1881 7.74993C18.024 7.63638 17.8371 7.55865 17.6398 7.52195C17.3746 7.478 17.1056 7.45891 16.8367 7.46496C16.5678 7.46027 16.299 7.47935 16.0335 7.52195C15.8209 7.55292 15.6199 7.63686 15.4497 7.76576C15.3643 7.84444 15.2973 7.9404 15.2533 8.047C15.2093 8.1536 15.1894 8.2683 15.1949 8.38319V9.36791C13.5522 8.08915 11.5044 7.41683 9.40851 7.46813C3.86398 7.46813 -0.00976562 11.5115 -0.00976562 17.2995C-0.00976562 22.9387 3.73819 26.8776 9.10854 26.8776C11.342 26.8911 13.51 26.1373 15.2369 24.7467V25.9309C15.2292 26.0492 15.249 26.1677 15.2948 26.2774C15.3406 26.3871 15.4112 26.4852 15.5014 26.5642C15.6729 26.6954 15.8763 26.7806 16.0916 26.8111C16.3567 26.8567 16.6257 26.8769 16.8947 26.8713C17.1638 26.878 17.4329 26.8579 17.6979 26.8111C17.8941 26.7744 18.08 26.6966 18.243 26.5832C18.3443 26.5105 18.4264 26.4151 18.4825 26.3049C18.5386 26.1948 18.5671 26.073 18.5655 25.9499V20.5798H13.6177C12.7307 22.4638 11.1212 23.6068 9.26659 23.6068Z" fill="#237FBD"/>
<path d="M41.1114 7.85514C40.5866 6.33271 39.7316 4.9402 38.6052 3.77376C37.4532 2.62105 36.0522 1.73701 34.5057 1.18689C32.602 0.548359 30.5981 0.246051 28.587 0.293988H22.6135C22.2155 0.296637 21.8297 0.429194 21.5169 0.670778C21.3211 0.838316 21.1687 1.04914 21.0722 1.28586C20.9758 1.52259 20.938 1.77843 20.9621 2.03229V14.859H25.1552V3.83392H28.3806C30.1481 3.83392 31.606 4.07456 32.7156 4.54634C33.7738 4.98629 34.7135 5.66158 35.4604 6.51896C36.2027 7.40232 36.7467 8.42946 37.057 9.53329C37.4116 10.7781 37.5864 12.0656 37.5763 13.3582C37.5828 14.8765 37.3655 16.3877 36.9312 17.8449C36.6132 18.9833 36.0427 20.0386 35.2604 20.9352C34.5065 21.7549 33.5566 22.3773 32.4962 22.7463C31.4641 23.1168 29.7288 23.3479 27.9806 23.3479H25.0777V20.5805H20.8847V25.1654C20.8606 25.4188 20.8984 25.6741 20.9948 25.9104C21.0913 26.1466 21.2437 26.3568 21.4395 26.5237C21.7504 26.7668 22.1354 26.9006 22.5329 26.9037H28.129C30.1459 26.9435 32.156 26.6601 34.0799 26.0646C35.6841 25.5458 37.1444 24.6702 38.3472 23.5062C39.5539 22.293 40.461 20.8241 40.9985 19.2127C41.6561 17.2809 41.983 15.2556 41.9661 13.2189C41.9886 11.3966 41.6997 9.58359 41.1114 7.85514Z" fill="#237FBD"/>
</g>
<defs>
<clipPath id="clip0_2_6">
<rect width="112" height="36.1245" fill="white" transform="translate(0 0.292969)"/>
</clipPath>
</defs>
</svg>
